<svg t="1757807799546" class="icon" viewBox="0 0 1024 1024" version="1.1" xmlns="http://www.w3.org/2000/svg" p-id="8632"
     width="64" height="64">
    <path d="M884 779.5H133c-6.8 0-12.2-5.5-12.2-12.2s5.5-12.2 12.2-12.2h751c6.8 0 12.2 5.5 12.2 12.2s-5.5 12.2-12.2 12.2zM884 388.2H133c-6.8 0-12.2-5.5-12.2-12.2s5.5-12.2 12.2-12.2h751c6.8 0 12.2 5.5 12.2 12.2s-5.5 12.2-12.2 12.2zM918.1 825H98.9c-6.8 0-12.2-5.5-12.2-12.2s5.5-12.2 12.2-12.2h819.2c6.8 0 12.2 5.5 12.2 12.2s-5.4 12.2-12.2 12.2z"
          fill="#6060BA" p-id="8633"></path>
    <path d="M167.2 427.1h45.5V721h-45.5z" fill="#ACB9F9" p-id="8634"></path>
    <path d="M212.7 733.2h-45.5c-6.8 0-12.2-5.5-12.2-12.2V427.1c0-6.8 5.5-12.2 12.2-12.2h45.5c6.8 0 12.2 5.5 12.2 12.2V721c0 6.8-5.5 12.2-12.2 12.2z m-33.3-24.4h21.1V439.3h-21.1v269.5z"
          fill="#6060BA" p-id="8635"></path>
    <path d="M273.3 427.1h45.5V721h-45.5z" fill="#ACB9F9" p-id="8636"></path>
    <path d="M318.9 733.2h-45.5c-6.8 0-12.2-5.5-12.2-12.2V427.1c0-6.8 5.5-12.2 12.2-12.2h45.5c6.8 0 12.2 5.5 12.2 12.2V721c0 6.8-5.5 12.2-12.2 12.2z m-33.3-24.4h21.1V439.3h-21.1v269.5z"
          fill="#6060BA" p-id="8637"></path>
    <path d="M379.5 427.1H425V721h-45.5z" fill="#ACB9F9" p-id="8638"></path>
    <path d="M425.1 733.2h-45.5c-6.8 0-12.2-5.5-12.2-12.2V427.1c0-6.8 5.5-12.2 12.2-12.2h45.5c6.8 0 12.2 5.5 12.2 12.2V721c0 6.8-5.5 12.2-12.2 12.2z m-33.3-24.4h21.1V439.3h-21.1v269.5z"
          fill="#6060BA" p-id="8639"></path>
    <path d="M485.7 427.1h45.5V721h-45.5z" fill="#ACB9F9" p-id="8640"></path>
    <path d="M531.3 733.2h-45.5c-6.8 0-12.2-5.5-12.2-12.2V427.1c0-6.8 5.5-12.2 12.2-12.2h45.5c6.8 0 12.2 5.5 12.2 12.2V721c0 6.8-5.5 12.2-12.2 12.2zM498 708.8h21V439.3h-21v269.5z"
          fill="#6060BA" p-id="8641"></path>
    <path d="M591.9 427.1h45.5V721h-45.5z" fill="#ACB9F9" p-id="8642"></path>
    <path d="M637.4 733.2h-45.5c-6.8 0-12.2-5.5-12.2-12.2V427.1c0-6.8 5.5-12.2 12.2-12.2h45.5c6.8 0 12.2 5.5 12.2 12.2V721c0.1 6.8-5.4 12.2-12.2 12.2z m-33.2-24.4h21.1V439.3h-21.1v269.5z"
          fill="#6060BA" p-id="8643"></path>
    <path d="M698.1 427.1h45.5V721h-45.5z" fill="#ACB9F9" p-id="8644"></path>
    <path d="M743.6 733.2h-45.5c-6.8 0-12.2-5.5-12.2-12.2V427.1c0-6.8 5.5-12.2 12.2-12.2h45.5c6.8 0 12.2 5.5 12.2 12.2V721c0.1 6.8-5.4 12.2-12.2 12.2z m-33.2-24.4h21.1V439.3h-21.1v269.5z"
          fill="#6060BA" p-id="8645"></path>
    <path d="M804.3 427.1h45.5V721h-45.5z" fill="#ACB9F9" p-id="8646"></path>
    <path d="M849.8 733.2h-45.5c-6.8 0-12.2-5.5-12.2-12.2V427.1c0-6.8 5.5-12.2 12.2-12.2h45.5c6.8 0 12.2 5.5 12.2 12.2V721c0.1 6.8-5.4 12.2-12.2 12.2z m-33.2-24.4h21.1V439.3h-21.1v269.5z"
          fill="#6060BA" p-id="8647"></path>
    <path d="M886.5 327.3l-378-141.7-378 141.7z" fill="#ACB9F9" p-id="8648"></path>
    <path d="M886.5 339.5h-756c-5.9 0-11-4.2-12-10s2.2-11.6 7.7-13.6l378-141.6c2.8-1 5.8-1 8.6 0l378 141.6c5.5 2.1 8.8 7.8 7.7 13.6s-6.1 10-12 10zM198 315h621L508.5 198.7 198 315z"
          fill="#6060BA" p-id="8649"></path>
</svg>